<?xml version="1.0" standalone="no"?>
<!DOCTYPE svg PUBLIC "-//W3C//DTD SVG 20010904//EN"
 "http://www.w3.org/TR/2001/REC-SVG-20010904/DTD/svg10.dtd">
<svg version="1.0" xmlns="http://www.w3.org/2000/svg"
 width="640.000000pt" height="640.000000pt" viewBox="0 0 640.000000 640.000000"
 preserveAspectRatio="xMidYMid meet">
<metadata>
Created by potrace 1.11, written by Peter Selinger 2001-2013
</metadata>
<g transform="translate(0.000000,640.000000) scale(0.100000,-0.100000)"
fill="#000000" stroke="none">
<path d="M0 3200 l0 -3200 3200 0 3200 0 0 3200 0 3200 -3200 0 -3200 0 0
-3200z m2135 2121 c36 -108 138 -228 250 -292 l50 -29 213 0 c309 0 508 -26
686 -91 129 -47 254 -141 279 -211 7 -22 19 -1 12 22 -16 52 -114 136 -271
235 -48 30 -85 55 -82 55 4 0 76 -23 161 -50 750 -243 1312 -679 1511 -1173
19 -47 46 -131 60 -187 14 -55 47 -164 74 -243 106 -305 160 -573 169 -827 11
-333 -50 -587 -191 -784 -43 -60 -174 -192 -182 -183 -3 2 6 42 20 88 77 267
77 610 1 843 -26 80 -76 192 -97 220 -15 18 -17 18 -64 -18 -67 -51 -206 -116
-343 -160 -114 -37 -272 -78 -278 -72 -2 1 19 40 46 85 56 92 104 201 126 287
14 54 21 184 10 184 -2 0 -30 -16 -62 -37 -122 -78 -315 -156 -503 -203 -255
-64 -444 -85 -780 -84 -411 0 -685 33 -1187 141 -17 4 -42 -16 -115 -88 -187
-186 -296 -401 -344 -674 -18 -104 -24 -374 -11 -450 7 -39 7 -39 -7 -14 -24
41 -92 247 -114 344 -56 242 -71 548 -38 765 31 201 100 419 188 593 l34 69
-18 53 c-74 219 -37 504 102 800 50 107 140 258 188 314 l28 34 12 -99 c22
-174 64 -306 113 -350 l22 -19 -21 40 c-44 87 -57 153 -57 295 0 153 16 245
71 409 52 158 195 443 288 576 l21 30 7 -47 c3 -26 14 -70 23 -97z"/>
</g>
</svg>
